<mxfile host="drawio-plugin" modified="2021-12-21T08:28:56.638Z" agent="5.0 (Macintosh; Intel Mac OS X 11_6_0) AppleWebKit/537.36 (KHTML, like Gecko) Chrome/89.0.4389.114 Safari/537.36" etag="oIKzWS41J09gtGhJRlOZ" version="14.7.4" type="embed"><diagram id="URR7YQvQGdRn0lYa1I5d" name="第 1 页"><mxGraphModel dx="926" dy="813" grid="1" gridSize="10" guides="1" tooltips="1" connect="1" arrows="1" fold="1" page="1" pageScale="1" pageWidth="1169" pageHeight="827" math="0" shadow="0"><root><mxCell id="0"/><mxCell id="1" parent="0"/><mxCell id="x7qfSwk5-a6ss3x7IaJ3-1" value="&lt;font style=&quot;font-size: 16px&quot;&gt;Master&lt;/font&gt;" style="rounded=1;whiteSpace=wrap;html=1;fillColor=#d80073;strokeColor=#A50040;fontColor=#ffffff;" parent="1" vertex="1"><mxGeometry x="534" y="255" width="120" height="60" as="geometry"/></mxCell><mxCell id="x7qfSwk5-a6ss3x7IaJ3-2" value="&lt;font style=&quot;font-size: 16px&quot;&gt;Worker&lt;/font&gt;" style="rounded=1;whiteSpace=wrap;html=1;fillColor=#6a00ff;strokeColor=#3700CC;fontColor=#ffffff;" parent="1" vertex="1"><mxGeometry x="889" y="323" width="120" height="60" as="geometry"/></mxCell><mxCell id="x7qfSwk5-a6ss3x7IaJ3-3" value="" style="rounded=1;whiteSpace=wrap;html=1;fillColor=#1ba1e2;strokeColor=#006EAF;fontColor=#ffffff;" parent="1" vertex="1"><mxGeometry x="159" y="407" width="160" height="120" as="geometry"/></mxCell><mxCell id="x7qfSwk5-a6ss3x7IaJ3-6" value="&lt;font style=&quot;font-size: 16px&quot;&gt;Driver&lt;/font&gt;" style="text;html=1;strokeColor=none;fillColor=none;align=center;verticalAlign=middle;whiteSpace=wrap;rounded=0;" parent="1" vertex="1"><mxGeometry x="209" y="417" width="60" height="20" as="geometry"/></mxCell><mxCell id="x7qfSwk5-a6ss3x7IaJ3-35" style="edgeStyle=orthogonalEdgeStyle;rounded=0;orthogonalLoop=1;jettySize=auto;html=1;exitX=1;exitY=0.5;exitDx=0;exitDy=0;entryX=0;entryY=0.5;entryDx=0;entryDy=0;" parent="1" source="x7qfSwk5-a6ss3x7IaJ3-7" target="x7qfSwk5-a6ss3x7IaJ3-2" edge="1"><mxGeometry relative="1" as="geometry"><Array as="points"><mxPoint x="789" y="482"/><mxPoint x="789" y="353"/></Array></mxGeometry></mxCell><mxCell id="x7qfSwk5-a6ss3x7IaJ3-7" value="&lt;font style=&quot;font-size: 16px&quot;&gt;LifecycleManager&lt;/font&gt;" style="rounded=1;whiteSpace=wrap;html=1;fillColor=#0050ef;strokeColor=#001DBC;fontColor=#ffffff;" parent="1" vertex="1"><mxGeometry x="169" y="447" width="140" height="70" as="geometry"/></mxCell><mxCell id="x7qfSwk5-a6ss3x7IaJ3-10" value="&lt;font style=&quot;font-size: 16px&quot;&gt;Master&lt;/font&gt;" style="rounded=1;whiteSpace=wrap;html=1;fillColor=#d80073;strokeColor=#A50040;fontColor=#ffffff;" parent="1" vertex="1"><mxGeometry x="534" y="323" width="120" height="60" as="geometry"/></mxCell><mxCell id="x7qfSwk5-a6ss3x7IaJ3-14" value="" style="endArrow=classic;html=1;exitX=1;exitY=0.5;exitDx=0;exitDy=0;entryX=0;entryY=0.5;entryDx=0;entryDy=0;" parent="1" source="x7qfSwk5-a6ss3x7IaJ3-7" target="x7qfSwk5-a6ss3x7IaJ3-1" edge="1"><mxGeometry width="50" height="50" relative="1" as="geometry"><mxPoint x="409" y="427" as="sourcePoint"/><mxPoint x="459" y="377" as="targetPoint"/><Array as="points"><mxPoint x="479" y="353"/></Array></mxGeometry></mxCell><mxCell id="x7qfSwk5-a6ss3x7IaJ3-18" value="" style="endArrow=classic;html=1;exitX=1;exitY=0.5;exitDx=0;exitDy=0;entryX=0;entryY=0.5;entryDx=0;entryDy=0;dashed=1;" parent="1" source="x7qfSwk5-a6ss3x7IaJ3-7" target="x7qfSwk5-a6ss3x7IaJ3-10" edge="1"><mxGeometry width="50" height="50" relative="1" as="geometry"><mxPoint x="319" y="492" as="sourcePoint"/><mxPoint x="544" y="297" as="targetPoint"/><Array as="points"><mxPoint x="479" y="353"/></Array></mxGeometry></mxCell><mxCell id="x7qfSwk5-a6ss3x7IaJ3-19" value="&lt;font style=&quot;font-size: 16px&quot;&gt;Master&lt;/font&gt;" style="rounded=1;whiteSpace=wrap;html=1;fillColor=#d80073;strokeColor=#A50040;fontColor=#ffffff;" parent="1" vertex="1"><mxGeometry x="534" y="393" width="120" height="60" as="geometry"/></mxCell><mxCell id="x7qfSwk5-a6ss3x7IaJ3-21" value="" style="endArrow=classic;html=1;exitX=1;exitY=0.5;exitDx=0;exitDy=0;entryX=0;entryY=0.5;entryDx=0;entryDy=0;dashed=1;" parent="1" source="x7qfSwk5-a6ss3x7IaJ3-7" target="x7qfSwk5-a6ss3x7IaJ3-19" edge="1"><mxGeometry width="50" height="50" relative="1" as="geometry"><mxPoint x="319" y="492" as="sourcePoint"/><mxPoint x="544" y="363" as="targetPoint"/><Array as="points"><mxPoint x="479" y="353"/></Array></mxGeometry></mxCell><mxCell id="x7qfSwk5-a6ss3x7IaJ3-22" value="&lt;font style=&quot;font-size: 16px&quot;&gt;Request Slots&lt;/font&gt;" style="edgeLabel;html=1;align=center;verticalAlign=middle;resizable=0;points=[];" parent="x7qfSwk5-a6ss3x7IaJ3-21" vertex="1" connectable="0"><mxGeometry x="-0.4208" y="-4" relative="1" as="geometry"><mxPoint x="17" y="-24" as="offset"/></mxGeometry></mxCell><mxCell id="x7qfSwk5-a6ss3x7IaJ3-23" value="&lt;font style=&quot;font-size: 16px&quot;&gt;Worker&lt;/font&gt;" style="rounded=1;whiteSpace=wrap;html=1;fillColor=#6a00ff;strokeColor=#3700CC;fontColor=#ffffff;" parent="1" vertex="1"><mxGeometry x="889" y="418" width="120" height="60" as="geometry"/></mxCell><mxCell id="x7qfSwk5-a6ss3x7IaJ3-25" value="&lt;font style=&quot;font-size: 16px&quot;&gt;Worker&lt;/font&gt;" style="rounded=1;whiteSpace=wrap;html=1;fillColor=#6a00ff;strokeColor=#3700CC;fontColor=#ffffff;" parent="1" vertex="1"><mxGeometry x="889" y="513" width="120" height="60" as="geometry"/></mxCell><mxCell id="x7qfSwk5-a6ss3x7IaJ3-27" value="" style="endArrow=classic;html=1;entryX=1;entryY=0.5;entryDx=0;entryDy=0;exitX=0;exitY=0.5;exitDx=0;exitDy=0;" parent="1" source="x7qfSwk5-a6ss3x7IaJ3-2" target="x7qfSwk5-a6ss3x7IaJ3-1" edge="1"><mxGeometry width="50" height="50" relative="1" as="geometry"><mxPoint x="749" y="393" as="sourcePoint"/><mxPoint x="799" y="343" as="targetPoint"/><Array as="points"><mxPoint x="829" y="285"/></Array></mxGeometry></mxCell><mxCell id="x7qfSwk5-a6ss3x7IaJ3-28" value="" style="endArrow=classic;html=1;entryX=1;entryY=0.5;entryDx=0;entryDy=0;exitX=0;exitY=0.5;exitDx=0;exitDy=0;" parent="1" source="x7qfSwk5-a6ss3x7IaJ3-23" target="x7qfSwk5-a6ss3x7IaJ3-1" edge="1"><mxGeometry width="50" height="50" relative="1" as="geometry"><mxPoint x="899" y="268" as="sourcePoint"/><mxPoint x="664" y="295" as="targetPoint"/><Array as="points"><mxPoint x="829" y="285"/></Array></mxGeometry></mxCell><mxCell id="x7qfSwk5-a6ss3x7IaJ3-29" value="" style="endArrow=classic;html=1;entryX=1;entryY=0.5;entryDx=0;entryDy=0;exitX=0;exitY=0.5;exitDx=0;exitDy=0;" parent="1" source="x7qfSwk5-a6ss3x7IaJ3-25" target="x7qfSwk5-a6ss3x7IaJ3-1" edge="1"><mxGeometry width="50" height="50" relative="1" as="geometry"><mxPoint x="899" y="363" as="sourcePoint"/><mxPoint x="664" y="295" as="targetPoint"/><Array as="points"><mxPoint x="829" y="285"/></Array></mxGeometry></mxCell><mxCell id="x7qfSwk5-a6ss3x7IaJ3-31" value="" style="endArrow=classic;html=1;entryX=1;entryY=0.5;entryDx=0;entryDy=0;exitX=0;exitY=0.5;exitDx=0;exitDy=0;dashed=1;" parent="1" target="x7qfSwk5-a6ss3x7IaJ3-10" edge="1"><mxGeometry width="50" height="50" relative="1" as="geometry"><mxPoint x="889" y="353" as="sourcePoint"/><mxPoint x="654" y="285" as="targetPoint"/><Array as="points"><mxPoint x="829" y="285"/><mxPoint x="699" y="285"/></Array></mxGeometry></mxCell><mxCell id="x7qfSwk5-a6ss3x7IaJ3-32" value="" style="endArrow=classic;html=1;entryX=1;entryY=0.5;entryDx=0;entryDy=0;exitX=0;exitY=0.5;exitDx=0;exitDy=0;dashed=1;" parent="1" target="x7qfSwk5-a6ss3x7IaJ3-19" edge="1"><mxGeometry width="50" height="50" relative="1" as="geometry"><mxPoint x="889" y="448" as="sourcePoint"/><mxPoint x="654" y="285" as="targetPoint"/><Array as="points"><mxPoint x="829" y="285"/><mxPoint x="699" y="285"/></Array></mxGeometry></mxCell><mxCell id="x7qfSwk5-a6ss3x7IaJ3-33" value="&lt;font style=&quot;font-size: 16px&quot;&gt;Register Worker&lt;/font&gt;" style="edgeLabel;html=1;align=center;verticalAlign=middle;resizable=0;points=[];" parent="x7qfSwk5-a6ss3x7IaJ3-32" vertex="1" connectable="0"><mxGeometry x="0.1572" y="2" relative="1" as="geometry"><mxPoint x="16" y="-2" as="offset"/></mxGeometry></mxCell><mxCell id="x7qfSwk5-a6ss3x7IaJ3-37" style="edgeStyle=orthogonalEdgeStyle;rounded=0;orthogonalLoop=1;jettySize=auto;html=1;exitX=1;exitY=0.5;exitDx=0;exitDy=0;entryX=0;entryY=0.5;entryDx=0;entryDy=0;" parent="1" target="x7qfSwk5-a6ss3x7IaJ3-23" edge="1"><mxGeometry relative="1" as="geometry"><mxPoint x="309" y="482" as="sourcePoint"/><mxPoint x="889" y="353" as="targetPoint"/><Array as="points"><mxPoint x="789" y="482"/><mxPoint x="789" y="448"/></Array></mxGeometry></mxCell><mxCell id="x7qfSwk5-a6ss3x7IaJ3-38" style="edgeStyle=orthogonalEdgeStyle;rounded=0;orthogonalLoop=1;jettySize=auto;html=1;exitX=1;exitY=0.5;exitDx=0;exitDy=0;entryX=0;entryY=0.5;entryDx=0;entryDy=0;" parent="1" target="x7qfSwk5-a6ss3x7IaJ3-25" edge="1"><mxGeometry relative="1" as="geometry"><mxPoint x="309" y="482" as="sourcePoint"/><mxPoint x="859" y="543" as="targetPoint"/><Array as="points"><mxPoint x="789" y="482"/><mxPoint x="789" y="543"/></Array></mxGeometry></mxCell><mxCell id="x7qfSwk5-a6ss3x7IaJ3-39" value="&lt;font style=&quot;font-size: 16px&quot;&gt;Reserve Buffer&lt;/font&gt;" style="edgeLabel;html=1;align=center;verticalAlign=middle;resizable=0;points=[];" parent="x7qfSwk5-a6ss3x7IaJ3-38" vertex="1" connectable="0"><mxGeometry x="-0.2699" y="-1" relative="1" as="geometry"><mxPoint as="offset"/></mxGeometry></mxCell></root></mxGraphModel></diagram></mxfile>